# xmcd CD database file
#
# Track frame offsets:
#	150
#	18725
#	32782
#	55997
#	67202
#	85002
#	102140
#	117717
#	137057
#	153880
#	168665
#	188082
#	205030
#	226742
#	242065
#	256285
#	274432
#	287947
#	304457
#	326492
#
# Disc length: 4544 seconds
#
# Revision: 1
# Processed by: cddbd v1.5.2PL0 Copyright (c) Steve Scherf et al.
# Submitted via: jetAudio 5
#
DISCID=2b11be14
DTITLE=Pholhas - Super Dose
DYEAR=1900
DGENRE=
TTITLE0=Proud Mary
TTITLE1=Venus
TTITLE2=Smoke Gets In Your Eyes
TTITLE3=Have You Ever Seen The Rain
TTITLE4=It's Too Late
TTITLE5=Forever
TTITLE6=Just A Dream Ago
TTITLE7=Unchained Melody
TTITLE8=The Night Before
TTITLE9=My Mistake
TTITLE10=A White Shade Of Pale
TTITLE11=Bus Stop
TTITLE12=All By Myself
TTITLE13=Stormy
TTITLE14=I Started A Joke
TTITLE15=Reflections Of My Life
TTITLE16=Traces
TTITLE17=Skyline Piggeon
TTITLE18=You Make Me Feel Brand New
TTITLE19=She Made Me Cry
EXTD=2002
EXTT0=
EXTT1=
EXTT2=
EXTT3=
EXTT4=
EXTT5=
EXTT6=
EXTT7=
EXTT8=
EXTT9=
EXTT10=
EXTT11=
EXTT12=
EXTT13=
EXTT14=
EXTT15=
EXTT16=
EXTT17=
EXTT18=
EXTT19=
PLAYORDER=
